<?xml version="1.0" encoding="utf-8"?>
<!-- Generator: Adobe Illustrator 21.1.0, SVG Export Plug-In . SVG Version: 6.00 Build 0)  -->
<svg version="1.1" id="Слой_1" xmlns="http://www.w3.org/2000/svg" xmlns:xlink="http://www.w3.org/1999/xlink" x="0px" y="0px"
	 viewBox="0 0 512 512" style="enable-background:new 0 0 512 512;" xml:space="preserve">
<style type="text/css">
	.st0{fill:url(#SVGID_1_);}
	.st1{enable-background:new    ;}
	.st2{fill:#FFEEE5;}
</style>
<linearGradient id="SVGID_1_" gradientUnits="userSpaceOnUse" x1="-1.704423e-05" y1="512" x2="512" y2="1.704423e-05" gradientTransform="matrix(1 0 0 -1 0 512)">
	<stop  offset="0" style="stop-color:#0D47A1"/>
	<stop  offset="0.7711" style="stop-color:#047AC6"/>
	<stop  offset="1" style="stop-color:#0288D1"/>
</linearGradient>
<rect class="st0" width="512" height="512"/>
<g class="st1">
	<path class="st2" d="M222.1,345.4c0.6,1.6,0.5,3.5-0.7,5.5c-1.7,2.9-5.2,4.1-8.4,5.2c-23.2,8.3-43.8,23.4-64.7,36.2
		c-5.3,3.2-10.7,6.5-16.7,8s-12.9,0.7-17.6-3.5c-3.1-2.7-4.8-6.7-5.6-10.7c-0.8-4-0.7-8.2-0.6-12.3c0.9-34.3,4.5-68.3,7.8-102.4
		c1.3-13.9,2.8-27.6,4.3-41.3c1.6-13.7,3.5-27.3,5.9-41c2.2-13.7,4.7-27.1,7.6-40.3c2.9-13.2,6.3-26.4,10.2-39.7
		c0.6-2,1.8-3.4,3.6-4.2c1.7-0.9,3.6-1.1,5.5-0.6c1.9,0.4,3.4,1.6,4.4,3.4c1,1.8,1.2,3.6,0.8,5.4l-2.9,9.8c-3.7,13-6.8,26-9.4,38.8
		c-8,39.8-12.7,80.2-16.5,120.6c-3.1,33.3-6.3,66.7-6.3,100.1c0,0.9,0,1.8,0.5,2.6c1.2,2,4.3,1.4,6.4,0.4
		c15.6-6.9,29.7-16.9,44.3-25.7c7.2-4.4,14.5-8.6,22.1-12.2c5.4-2.6,10.7-6.1,16.6-7C216.5,339.8,220.8,342,222.1,345.4z
		 M126.1,386.4c-0.2,0-0.4,0.1-0.5,0.2C125.5,386.6,125.7,386.6,126.1,386.4z M129.4,179c-0.2,0.4-0.1,0.7,0.5,0.8
		c0.5,0.1,0.8-0.1,0.8-0.5c1.3-6.9,2.7-13.8,4.1-20.6c1.4-6.8,3-13.7,4.7-20.6c0.2-0.4,0.1-0.7-0.5-0.8c-0.5-0.1-0.9,0.1-1.1,0.5
		c-1.7,6.9-3.3,13.8-4.7,20.6C131.7,165.2,130.4,172.1,129.4,179z M130.7,385.1c-0.4,0.2-0.6,0.3-0.5,0.2
		C130.3,385.1,130.4,385.1,130.7,385.1z"/>
	<path class="st2" d="M308.6,241.7c0.6,1.3,0.7,2.9,0.3,4.3c-0.9,3.1-4,4.9-6.9,6.2c-5.8,2.6-11.9,4.2-18.2,5.2
		c-2.3,0.4-4.6,0.7-6.9,0.9c-0.9,0.1-2,0.3-2.8,0.1c1.3,2.2,2.6,4.2,3.5,6.6c0.9,2.3,1.3,4.8,1.3,7.6c0,4.2,0.1,8.1-1.4,12
		c-1.4,4-3.1,7.8-5.1,11.5c-3.9,7.5-8.9,14.6-14.5,21c-5.2,5.9-11.2,11.5-18.4,14.6s-16,3.5-22.8-0.5c-6.7-3.9-9.7-11.5-11.1-18.7
		c-1.8-9.2-1.5-18.9-0.4-28.2c1.2-9.7,3.6-19.2,6.2-28.7c2.5-9.2,5.7-18.3,9.8-26.9c0.9-1.9,1.9-3.8,2.9-5.6
		c2.9-5.3,6.3-10.4,11-14.1c5.1-4,12.4-5.6,18.4-2.6c5.7,2.8,9.8,8.4,11.4,14.5c1.7,6.4,0.8,13.3-1.8,19.4c-0.3,0.7-0.7,1.6-0.2,2.4
		c0.5,0.7,1.3,0.8,2,0.8c6.8,0.4,13.6,0.6,20.4,0c2-0.2,3.9-0.5,5.9-0.9c3-0.6,6-1.5,8.8-2.8c0.9-0.4,1.9-0.9,2.9-1
		c1.9-0.3,3.8,0.6,5,2.1C308.2,241,308.4,241.3,308.6,241.7z M246.1,310.1c4.3-4.6,8-9.7,11.4-15c3.2-5,6-10.5,6.6-16.4
		c0.3-2.6,0.1-5.2-0.8-7.6c-1.6-4.5-5.7-8.7-9.6-11.3c-1.4-0.9-6.2,6.5-7.3,7.8c-2.4,2.7-4.8,5.4-7.1,8c-3,3.3-6.3,6.4-9.8,9.4
		c-1.8,1.6-3.7,3.2-5.7,4.6c-1.5,1.1-4.2,2.3-4.9,4c-2,4.3-1.1,11.9,0.4,16.2c1.5,4.6,5.2,8.8,10,9.5c2.7,0.4,5.6-0.3,8-1.6
		c2.4-1.3,4.5-3.2,6.5-5.1C244.5,311.8,245.3,311,246.1,310.1z M221.3,236.2c-0.2,0.4-0.1,0.7,0.5,0.7c0.5,0,0.9-0.2,1.1-0.7
		c2.6-9.8,7.7-18.2,15.3-25.3c0.4-0.4,0.4-0.8,0-1.1c-0.4-0.3-0.9-0.3-1.3,0.2C229.3,217.3,224.1,226,221.3,236.2z M237.6,227.4
		c-3.9,7.2-7.1,14.7-9.8,22.5c-1.4,4.1-2.6,8.2-3.7,12.3c-0.6,2.2-3.5,9.3-2,11.2c2.8-1.1,4.5-3.8,6.5-5.9c2.2-2.3,4.4-4.6,6.4-7
		c4.1-4.8,7.8-10,11-15.4c2-3.4,3.9-6.9,4.7-10.8s0.6-8.1-1.4-11.5c-1-1.8-2.8-3.4-4.8-3.1c-0.9,0.1-1.6,0.6-2.3,1.2
		c-1.7,1.4-2.9,3.4-4,5.4C237.9,226.7,237.8,227.1,237.6,227.4z M274.6,281.1C274.6,281.1,274.6,281.1,274.6,281.1
		c-0.6,1.4-1,2.8-1.5,4.2c-0.5,1.4-1.1,2.8-1.7,4.1c-1.2,2.7-2.5,5.3-3.9,7.9c-1.4,2.5-2.9,5-4.5,7.4c-1.6,2.4-3.3,4.7-5.1,7
		c-1.5,1.9-3.1,3.7-4.8,5.5c-0.4,0.4-0.5,0.8-0.2,1.1s0.7,0.3,1.1-0.2c2.2-2.2,4.1-4.6,6-7c1.9-2.3,3.6-4.8,5.2-7.3
		c1.6-2.5,3-5,4.4-7.6c1.3-2.6,2.5-5.2,3.5-7.9c0.5-1.2,0.9-2.4,1.3-3.6c0.4-1.1,0.6-2.4,1.2-3.4c0.1-0.2,0.1-0.3,0.1-0.5
		c0-0.1-0.1-0.1-0.2-0.2C275.3,280.5,274.8,280.6,274.6,281.1z"/>
	<path class="st2" d="M392.2,240.8c0.7,0.8,1.3,1.8,1.3,2.9c0,0.9-0.3,1.9-0.9,2.6c-0.5,0.8-1.2,1.4-1.9,2.1
		c-4.7,4.2-9.9,7.9-14.5,12.3c-0.4,0.4-0.9,0.8-1.3,1.2c-3.4,3.1-6.9,6.1-10.2,9.4c-4.3,3.9-8.6,7.9-12.7,12c-0.4,5-0.8,10-1.3,15
		c-0.4,5-1.1,10-1.9,14.9c-1.1,6.9-2.4,13.9-4,20.8c-1.6,6.9-3.5,13.9-5.9,20.8c-1.1,3-2.3,6.1-3.6,9.3c-1.3,3.1-2.6,6.2-3.9,9.3
		c-1.7,3-3.4,6.2-5,9.4s-3.4,6.4-5.4,9.4c-1.7,2.4-3.6,4.8-5.5,7.2c-2,2.4-4.2,4.4-6.8,6.2c-3.3,1.7-6.6,2.3-10.1,1.8
		c-3.5-0.5-6.3-2.2-8.5-5c-1.7-2.2-3.1-4.6-4.1-7.3c-1-2.7-1.7-5.5-2.1-8.3c-0.9-6.7-0.9-13.7,0-20.8c2-13.6,6.4-26.4,13.5-38.3
		c7-11.9,15.2-23.1,24.5-33.5c2.6-3,5.2-5.8,7.8-8.5c2.6-2.6,5.3-5.2,8.1-7.8c0.2-5.6,0.3-11.2,0.3-16.6c0-5.4,0-10.8,0-16.3
		c-2.4,3.9-4.8,7.7-7.3,11.5c-2.5,3.8-4.9,7.6-7.3,11.5c-1.7,3-3.6,6-5.7,8.8c-2.1,2.8-4.4,5.4-7,7.8c-1.3,1.3-2.7,2.5-4.2,3.6
		c-1.5,1.1-3.1,1.8-4.9,2.3c-2.4,0.7-4.7,0.5-6.8-0.3c-2.2-0.9-3.9-2.2-5.2-3.9c-1.1-1.7-1.7-3.5-2-5.4c-0.2-1.8-0.2-3.6,0-5.4
		c0.2-2.2,0.6-4.3,1.1-6.3c0.5-2.1,1-4.1,1.5-6c2.2-6.9,5.1-14,8.8-21.1c3.3-6.3,7-12.4,11.4-18.2c4.3-5.9,8.9-11.6,13.7-17.2
		c2.4-2.8,5.1-5.3,8.1-7.3c3-2.1,6.4-3.2,10-3.4c3.6-0.2,6.9,0.8,10.1,3.1c3.1,2.3,5,5.3,5.6,8.9c0.4,1.9,0.1,3.8-1.1,5.5
		c-1.2,1.7-2.7,2.8-4.4,3.2c-0.4,0.1-0.9,0.3-1.3,0.4c0.5,0.7,0.5,2.2,0.6,3c0.1,1.2,0.2,2.4,0.2,3.6c0.4,10.3,0.8,20.7,0.7,31
		c0,1.5,0,2.9-0.1,4.4c0,0.7-0.1,1.5-0.1,2.2c0,0.4-0.2,1.3-0.1,1.7c0.2,0.5,0.8,0.1,1.1-0.2c4.6-4.3,9.4-8.4,14.4-12.3
		c5-3.9,10.2-7.5,15.6-10.9c2.6-1.6,5.8-1.4,8.1,0.7C391.9,240.5,392.1,240.7,392.2,240.8z M298.8,385c0.2,0.9,0.4,1.9,0.7,2.8
		c0.3,1,0.8,1.9,1.4,2.7c0.4,0.6,0.9,1.2,1.6,1.3c1.1,0.2,2-0.7,2.7-1.6c7.7-9.7,13-21.1,17.3-32.7c6.9-18.6,11.5-38,13.6-57.7
		c-9.9,10.3-18.8,21.6-25.6,34.1c-1.5,2.7-2.9,5.5-4.2,8.4c-1.3,2.9-2.4,5.8-3.5,8.8c-1,3-1.9,6-2.6,9c-0.8,3.3-1.4,6.6-1.8,9.9
		c-0.4,3.3-0.7,6.6-0.4,9.9 M339,216.4c0.9-1.2,1.9-2.3,3.5-2.8c0.5-0.2,1.1-0.3,1.5-0.7c1.6-1.6-2.7-2.4-3.6-1.9
		c-1.1,0.5-2,1.4-2.8,2.4c-7.7,8.6-15.1,17.5-21.2,27.3s-10.9,20.5-13.2,31.9c0.1-0.6,1.5-1.5,1.9-2c0.7-0.8,1.3-1.7,2-2.6
		c1.4-1.9,2.7-3.9,4-6c9.4-14.5,18.5-29.2,27.2-44.2C338.4,217.3,338.7,216.9,339,216.4z M306.5,234.3c-0.4,0.4-0.4,0.8,0,1
		c0.4,0.2,0.9,0.1,1.3-0.3c3-4.5,6.1-9,9.3-13.5c3.1-4.4,6.9-8.5,11.2-12.2c0.4-0.4,0.5-0.8,0.2-1.1c-0.3-0.3-0.7-0.3-1.1,0.2
		c-4.3,3.7-8.1,7.8-11.4,12.2C312.6,224.9,309.5,229.5,306.5,234.3z M344.1,326.2c0.2-0.4,0.1-0.7-0.5-0.7c-0.5,0-0.9,0.2-1.1,0.7
		c-2,13.9-6.2,27-12.7,39.3c-0.2,0.4-0.1,0.8,0.3,1c0.4,0.2,0.8,0.1,1-0.3C337.8,353,342.1,339.7,344.1,326.2z M338.6,212.2l0.7-0.3
		C339.1,211.8,338.9,211.9,338.6,212.2z"/>
	<path class="st2" d="M411.1,282c0.4,1,0.6,2.1,0.7,3.1c0.1,1.4-0.1,2.8-0.6,4.2c-1.2,3.1-4.2,5-7.5,4.7c-1.5-0.1-2.9-0.7-4-1.7
		c-1.1-1-1.9-2.4-2.2-3.8c-0.3-1.7-0.5-3.4-0.1-5.1c0.5-2.1,1.9-4,3.9-5c1.7-0.9,4.3-1.1,6.1-0.2c1.6,0.8,2.9,2.1,3.6,3.7
		C411,281.9,411.1,282,411.1,282z M408.5,291.1c0.6-1.3,1.1-2.7,1.5-4.1c0.3-1.4,0.2-2.9-0.5-4.4c-0.2-0.4-0.6-0.6-1.1-0.5
		c-0.5,0.1-0.7,0.4-0.5,0.8c0.4,1.3,0.5,2.5,0.3,3.7c-0.2,1.2-0.5,2.3-1,3.4c-0.4,0.4-0.4,0.8,0,1.1
		C407.7,291.6,408.1,291.6,408.5,291.1z"/>
</g>
</svg>
