<svg xmlns="http://www.w3.org/2000/svg" viewBox="0 0 100 100" xmlns:v="https://vecta.io/nano"><style><![CDATA[.B{color-interpolation-filters:sRGB}.C{flood-opacity:0}]]></style><g clip-path="url(#D)"><rect width="100" height="100" fill="#d3dfea" rx="16"/><g filter="url(#A)"><path fill="#4d7eff" d="M83 5H17C10.373 5 5 10.373 5 17v66c0 6.627 5.373 12 12 12h66c6.627 0 12-5.373 12-12V17c0-6.627-5.373-12-12-12z"/></g><g filter="url(#B)"><path fill="#e3edf7" d="M40.296 74c-1.68 0-2.976-.456-3.888-1.368s-1.368-2.208-1.368-3.888v-40.32c0-1.68.504-3.024 1.512-4.032s2.376-1.512 4.104-1.512 3.096.504 4.104 1.512 1.512 2.352 1.512 4.032v36.432h18.432c3.504 0 5.256 1.536 5.256 4.608 0 3.024-1.752 4.536-5.256 4.536H40.296z"/></g><g filter="url(#C)"><path fill="#f16f6f" d="M82 18.131V5a1 1 0 00-1-1h-6a1 1 0 00-1 1v13.131a1 1 0 001.555.832l1.89-1.26a1 1 0 011.11 0l1.89 1.26A1 1 0 0082 18.131z"/></g></g><defs><filter id="A" width="102" height="102" x="-1" y="-1" filterUnits="userSpaceOnUse" class="B"><feFlood result="A" class="C"/><feColorMatrix in="SourceAlpha" values="0 0 0 0 0 0 0 0 0 0 0 0 0 0 0 0 0 0 127 0"/><feOffset dx="2" dy="2"/><feGaussianBlur stdDeviation="2"/><feColorMatrix values="0 0 0 0 0.140226 0 0 0 0 0.15723 0 0 0 0 0.201441 0 0 0 0.5 0"/><feBlend in2="A" result="B"/><feColorMatrix in="SourceAlpha" values="0 0 0 0 0 0 0 0 0 0 0 0 0 0 0 0 0 0 127 0"/><feOffset dx="-2" dy="-2"/><feGaussianBlur stdDeviation="2"/><feColorMatrix values="0 0 0 0 1 0 0 0 0 1 0 0 0 0 1 0 0 0 0.25 0"/><feBlend in2="B"/><feBlend in="SourceGraphic" result="D"/><feColorMatrix in="SourceAlpha" result="E" values="0 0 0 0 0 0 0 0 0 0 0 0 0 0 0 0 0 0 127 0"/><feOffset dx="1" dy="1"/><feGaussianBlur stdDeviation="1"/><feComposite in2="E" k2="-1" k3="1" operator="arithmetic"/><feColorMatrix values="0 0 0 0 1 0 0 0 0 1 0 0 0 0 1 0 0 0 0.25 0"/><feBlend in2="D" result="F"/><feColorMatrix in="SourceAlpha" result="E" values="0 0 0 0 0 0 0 0 0 0 0 0 0 0 0 0 0 0 127 0"/><feOffset dx="-1" dy="-1"/><feGaussianBlur stdDeviation="1"/><feComposite in2="E" k2="-1" k3="1" operator="arithmetic"/><feColorMatrix values="0 0 0 0 0.141176 0 0 0 0 0.156863 0 0 0 0 0.2 0 0 0 0.5 0"/><feBlend in2="F"/></filter><filter id="B" width="58.92" height="75.12" x="20.04" y="7.88" filterUnits="userSpaceOnUse" class="B"><feFlood result="A" class="C"/><feColorMatrix in="SourceAlpha" values="0 0 0 0 0 0 0 0 0 0 0 0 0 0 0 0 0 0 127 0"/><feOffset dx="3" dy="3"/><feGaussianBlur stdDeviation="3"/><feColorMatrix values="0 0 0 0 0.141176 0 0 0 0 0.156863 0 0 0 0 0.2 0 0 0 0.5 0"/><feBlend in2="A" result="B"/><feColorMatrix in="SourceAlpha" values="0 0 0 0 0 0 0 0 0 0 0 0 0 0 0 0 0 0 127 0"/><feOffset dx="-3" dy="-3"/><feGaussianBlur stdDeviation="6"/><feColorMatrix values="0 0 0 0 1 0 0 0 0 1 0 0 0 0 1 0 0 0 0.25 0"/><feBlend in2="B"/><feBlend in="SourceGraphic" result="D"/><feColorMatrix in="SourceAlpha" result="E" values="0 0 0 0 0 0 0 0 0 0 0 0 0 0 0 0 0 0 127 0"/><feOffset dx="-.5" dy="-.5"/><feGaussianBlur stdDeviation=".5"/><feComposite in2="E" k2="-1" k3="1" operator="arithmetic"/><feColorMatrix values="0 0 0 0 0.141176 0 0 0 0 0.156863 0 0 0 0 0.2 0 0 0 0.5 0"/><feBlend in2="D" result="F"/><feColorMatrix in="SourceAlpha" result="E" values="0 0 0 0 0 0 0 0 0 0 0 0 0 0 0 0 0 0 127 0"/><feOffset dx=".5" dy=".5"/><feGaussianBlur stdDeviation=".5"/><feComposite in2="E" k2="-1" k3="1" operator="arithmetic"/><feColorMatrix values="0 0 0 0 1 0 0 0 0 1 0 0 0 0 1 0 0 0 1 0"/><feBlend in2="F"/></filter><filter id="C" width="16" height="23.133" x="69" y="-1" filterUnits="userSpaceOnUse" class="B"><feFlood result="A" class="C"/><feColorMatrix in="SourceAlpha" values="0 0 0 0 0 0 0 0 0 0 0 0 0 0 0 0 0 0 127 0"/><feOffset dx="1" dy="1"/><feGaussianBlur stdDeviation="1"/><feColorMatrix values="0 0 0 0 0.141176 0 0 0 0 0.156863 0 0 0 0 0.2 0 0 0 0.5 0"/><feBlend in2="A" result="B"/><feColorMatrix in="SourceAlpha" values="0 0 0 0 0 0 0 0 0 0 0 0 0 0 0 0 0 0 127 0"/><feOffset dx="-1" dy="-1"/><feGaussianBlur stdDeviation="2"/><feColorMatrix values="0 0 0 0 1 0 0 0 0 1 0 0 0 0 1 0 0 0 0.25 0"/><feBlend in2="B"/><feBlend in="SourceGraphic" result="D"/><feColorMatrix in="SourceAlpha" result="E" values="0 0 0 0 0 0 0 0 0 0 0 0 0 0 0 0 0 0 127 0"/><feOffset dx=".5" dy=".5"/><feGaussianBlur stdDeviation=".5"/><feComposite in2="E" k2="-1" k3="1" operator="arithmetic"/><feColorMatrix values="0 0 0 0 1 0 0 0 0 1 0 0 0 0 1 0 0 0 0.25 0"/><feBlend in2="D" result="F"/><feColorMatrix in="SourceAlpha" result="E" values="0 0 0 0 0 0 0 0 0 0 0 0 0 0 0 0 0 0 127 0"/><feOffset dy="2"/><feGaussianBlur stdDeviation="1"/><feComposite in2="E" k2="-1" k3="1" operator="arithmetic"/><feColorMatrix values="0 0 0 0 1 0 0 0 0 1 0 0 0 0 1 0 0 0 0.5 0"/><feBlend in2="F" result="G"/><feColorMatrix in="SourceAlpha" result="E" values="0 0 0 0 0 0 0 0 0 0 0 0 0 0 0 0 0 0 127 0"/><feOffset dx="-.5" dy="-.5"/><feGaussianBlur stdDeviation=".5"/><feComposite in2="E" k2="-1" k3="1" operator="arithmetic"/><feColorMatrix values="0 0 0 0 0.141176 0 0 0 0 0.156863 0 0 0 0 0.2 0 0 0 0.5 0"/><feBlend in2="G"/></filter><clipPath id="D"><rect width="100" height="100" fill="#fff" rx="16"/></clipPath></defs></svg>